# xmcd
#
# Track frame offsets: 
#        150
#        13664
#        26240
#        41658
#        55259
#        68460
#        81056
#        95616
#        110504
#        124558
#        138365
#        152259
#        166410
#        181810
#        194844
#        208309
#        222010
#        237345
#        251514
#        264858
#        278326
#        291545
#        304528
#        318080
#        330382
#        345915
#
# Disc length: 4782 seconds
#
# Revision: 1
# Processed by: cddbd v1.5.2PL0 Copyright (c) Steve Scherf et al.
# Submitted via: ExactAudioCopy v1.0b3
#
DISCID=6712ac1a
DTITLE=Beiderbecke, Bix - The Bix Beiderbecke Story [Disc 4 - Louisian
DTITLE=a]
DYEAR=2003
DGENRE=Jazz
TTITLE0=Somebody Stole My Gal
TTITLE1=Thou Swell
TTITLE2=Forget Me Not
TTITLE3=Louisiana
TTITLE4=You Took Advantage Of Me
TTITLE5='Tain't So, Honey, 'Tain't So
TTITLE6=Bless You Sister
TTITLE7=Dusky Stevedore
TTITLE8='Ol Man River
TTITLE9=Wa-Da-Da (Everybody's Doin' It Now)
TTITLE10=Take Your Tomorrow (And Give Me Today)
TTITLE11=Love Affairs
TTITLE12=Rhythm Kings
TTITLE13=Louisiana
TTITLE14=Margie
TTITLE15=The Love Nest
TTITLE16=The Japanese Sandman
TTITLE17=High Up On A Hilltop
TTITLE18=Futuristic Rhythm
TTITLE19=Raisin' Tha Roof
TTITLE20=Louise
TTITLE21=Wait 'Til You See "Ma Cherie"
TTITLE22=Baby Won't You Please Come Home
TTITLE23=China Boy
TTITLE24=Rockin' Chair
TTITLE25=Barnacle Bill, The Sailor
EXTD=
EXTT0=
EXTT1=
EXTT2=
EXTT3=
EXTT4=
EXTT5=
EXTT6=
EXTT7=
EXTT8=
EXTT9=
EXTT10=
EXTT11=
EXTT12=
EXTT13=
EXTT14=
EXTT15=
EXTT16=
EXTT17=
EXTT18=
EXTT19=
EXTT20=
EXTT21=
EXTT22=
EXTT23=
EXTT24=
EXTT25=
PLAYORDER=
